<svg width="108" height="48" viewBox="0 0 108 48" fill="none" xmlns="http://www.w3.org/2000/svg">
<path d="M39 14.8505C37.8742 15.3361 36.6807 15.6523 35.4593 15.7885C36.7535 15.0484 37.7182 13.8569 38.1626 12.45C36.9578 13.1571 35.6369 13.6521 34.2593 13.9125C33.6946 13.3207 33.0149 12.8466 32.2605 12.5182C31.5062 12.1899 30.6925 12.0139 29.8678 12.0008C29.0431 11.9877 28.2241 12.1377 27.4594 12.4419C26.6947 12.7461 25.9998 13.1984 25.4159 13.7719C24.8346 14.3272 24.3751 14.9938 24.0656 15.7306C23.7562 16.4675 23.6033 17.2589 23.6165 18.0561C23.6193 18.522 23.6714 18.9863 23.7717 19.4416C21.3043 19.3305 18.8904 18.6953 16.6957 17.5798C14.5297 16.4906 12.6192 14.9674 11.087 13.108C10.5319 14.0333 10.2425 15.0896 10.2496 16.1641C10.242 17.1738 10.4978 18.1686 10.9924 19.0532C11.4699 19.9217 12.1562 20.6619 12.9913 21.2091C12.0155 21.1751 11.0622 20.9109 10.2117 20.4387V20.5138C10.1922 21.9217 10.6889 23.2894 11.6107 24.366C12.5029 25.4483 13.7527 26.1881 15.1422 26.4564C14.614 26.5932 14.0702 26.6624 13.5241 26.6625C13.1369 26.6592 12.7504 26.6277 12.3678 26.5681C12.7627 27.7703 13.529 28.8212 14.5597 29.574C15.5904 30.3269 16.8342 30.7441 18.1174 30.7676C15.9511 32.4696 13.2545 33.3835 10.483 33.355C9.98768 33.358 9.49254 33.3333 9 33.2812C11.8079 35.0795 15.0912 36.0248 18.4409 35.9995C20.5343 36.0143 22.6143 35.6689 24.587 34.9787C26.3795 34.3672 28.0441 33.4395 29.4991 32.2411C30.8564 31.0984 32.0394 29.7693 33.0117 28.2945C33.9722 26.8558 34.7129 25.286 35.2102 23.6354C35.6872 22.0557 35.9312 20.4168 35.9348 18.7688C35.9348 18.4187 35.9285 18.1561 35.9159 17.981C37.1199 17.1207 38.1634 16.0615 39 14.8505Z" fill="#77B900"/>
<path d="M95.8157 12.9348C95.526 12.6342 95.1777 12.3962 94.7923 12.2355C94.407 12.0747 93.9928 11.9947 93.5753 12.0003H75.1747C74.7573 11.9948 74.3432 12.0749 73.958 12.2357C73.5728 12.3964 73.2246 12.6344 72.9348 12.9348C72.6343 13.2245 72.3963 13.5727 72.2355 13.9579C72.0748 14.3432 71.9947 14.7573 72.0003 15.1747V33.5753C71.9947 33.9927 72.0748 34.4068 72.2355 34.7921C72.3963 35.1773 72.6343 35.5255 72.9348 35.8152C73.2245 36.1157 73.5727 36.3536 73.958 36.5144C74.3432 36.6751 74.7573 36.7552 75.1747 36.7497H93.5753C94.4158 36.7452 95.2206 36.4093 95.815 35.815C96.4093 35.2206 96.7452 34.4159 96.7497 33.5753V15.1747C96.7553 14.7573 96.6753 14.3433 96.5147 13.958C96.354 13.5728 96.1161 13.2246 95.8157 12.9348ZM80.8869 20.9187C81.3475 20.4618 81.8949 20.1017 82.4968 19.8596C83.0987 19.6175 83.743 19.4983 84.3917 19.509C85.0429 19.4973 85.69 19.6161 86.2947 19.8583C86.8993 20.1004 87.4494 20.4612 87.9126 20.9192C88.3735 21.3591 88.7403 21.888 88.991 22.4737C89.2417 23.0595 89.3709 23.69 89.3709 24.3271C89.3709 24.9643 89.2417 25.5948 88.991 26.1805C88.7403 26.7663 88.3735 27.2951 87.9126 27.735C87.4495 28.1931 86.8994 28.5539 86.2947 28.7961C85.69 29.0383 85.043 29.157 84.3917 29.1452C83.743 29.1558 83.0987 29.0365 82.4968 28.7944C81.8949 28.5522 81.3475 28.192 80.8869 27.735C80.4259 27.2951 80.0589 26.7663 79.8081 26.1805C79.5574 25.5947 79.4281 24.9641 79.4281 24.3269C79.4281 23.6896 79.5574 23.059 79.8081 22.4732C80.0589 21.8874 80.4259 21.3586 80.8869 20.9187ZM93.9466 32.9168C93.9495 33.0471 93.9252 33.1766 93.8753 33.2971C93.8253 33.4175 93.7509 33.5262 93.6566 33.6162C93.5658 33.7072 93.4577 33.7791 93.3387 33.8275C93.2196 33.8759 93.0921 33.9 92.9636 33.8982H75.7385C75.6087 33.9008 75.4797 33.8772 75.3592 33.8287C75.2388 33.7802 75.1294 33.7079 75.0376 33.6161C74.9458 33.5243 74.8734 33.4149 74.825 33.2945C74.7765 33.174 74.7529 33.045 74.7555 32.9152V22.4736H77.0271C76.8112 23.1563 76.7023 23.8683 76.7043 24.5843C76.6908 25.573 76.8846 26.5536 77.2734 27.4628C77.6621 28.372 78.2372 29.1896 78.9613 29.8629C79.6749 30.571 80.523 31.1289 81.4557 31.5039C82.3883 31.8789 83.3866 32.0633 84.3917 32.0463C85.746 32.0568 87.0795 31.7121 88.259 31.0466C89.4163 30.4039 90.3834 29.4673 91.0627 28.3312C91.7463 27.2018 92.1033 25.905 92.0941 24.5848C92.096 23.8688 91.9872 23.1568 91.7713 22.4741H93.9466V32.9152V32.9168ZM93.9466 18.5277C93.9482 18.6742 93.9205 18.8195 93.8652 18.9552C93.8098 19.0909 93.728 19.2141 93.6244 19.3178C93.5208 19.4214 93.3976 19.5033 93.262 19.5587C93.1263 19.6141 92.981 19.6418 92.8345 19.6403H90.0313C89.8849 19.6418 89.7397 19.6141 89.6042 19.5588C89.4686 19.5035 89.3455 19.4216 89.242 19.3181C89.1384 19.2146 89.0566 19.0915 89.0013 18.9559C88.946 18.8204 88.9182 18.6751 88.9198 18.5288V15.8676C88.9183 15.7223 88.9461 15.5782 89.0016 15.4439C89.0571 15.3096 89.139 15.1878 89.2426 15.0859C89.344 14.979 89.4665 14.8945 89.6024 14.8376C89.7383 14.7807 89.8846 14.7528 90.0319 14.7555H92.8355C92.9829 14.7527 93.1293 14.7806 93.2653 14.8375C93.4013 14.8943 93.5239 14.979 93.6254 15.0859C93.729 15.1878 93.811 15.3096 93.8664 15.4439C93.9219 15.5782 93.9497 15.7223 93.9482 15.8676V18.5261L93.9466 18.5277Z" fill="#808080"/>
</svg>
